<?xml version="1.0" encoding="UTF-8" standalone="no"?>
<!-- Created with Inkscape (http://www.inkscape.org/) -->

<svg
   width="210mm"
   height="297mm"
   viewBox="0 0 210 297"
   version="1.1"
   id="svg1"
   xml:space="preserve"
   xmlns:inkscape="http://www.inkscape.org/namespaces/inkscape"
   xmlns:sodipodi="http://sodipodi.sourceforge.net/DTD/sodipodi-0.dtd"
   xmlns="http://www.w3.org/2000/svg"
   xmlns:svg="http://www.w3.org/2000/svg"><sodipodi:namedview
     id="namedview1"
     pagecolor="#505050"
     bordercolor="#ffffff"
     borderopacity="1"
     inkscape:showpageshadow="0"
     inkscape:pageopacity="0"
     inkscape:pagecheckerboard="1"
     inkscape:deskcolor="#505050"
     inkscape:document-units="mm"><inkscape:page
       x="0"
       y="0"
       width="210"
       height="297"
       id="page2"
       margin="0"
       bleed="0" /></sodipodi:namedview><defs
     id="defs1"><clipPath
       id="d846dd2776"><path
         d="m 86,213 h 669 v 82 H 86 Z m 0,0"
         clip-rule="nonzero"
         id="path1" /></clipPath><clipPath
       id="d51ad244f3"><path
         d="m 158.54687,249.71875 c 3.1836,-3.80469 5.10547,-8.69531 5.10547,-14.03516 0,-12.07812 -9.8164,-21.90234 -21.8789,-21.90234 H 93.859375 c -4.101563,0 -7.417969,3.32422 -7.417969,7.42187 0,4.10157 3.324219,7.42579 7.417969,7.42579 h 47.914065 c 3.8789,0 7.04297,3.16015 7.04297,7.05468 0,3.87891 -3.14454,7.03125 -7.01172,7.04297 -0.27735,-0.004 -0.55078,-0.0391 -0.83203,-0.0391 H 93.867188 c -4.101563,0 -7.417969,3.32812 -7.417969,7.42578 v 36.5 c 0,4.10547 3.324219,7.42578 7.417969,7.42578 h 47.105472 c 14.14453,0 25.64843,-11.51953 25.64843,-25.67578 -0.004,-7.34766 -3.12109,-13.96094 -8.07422,-18.64453 z m -17.57812,29.46875 h -39.69141 v -21.60156 h 40.13672 c 5.75,0.23828 10.36719,4.96093 10.36719,10.77734 0,5.97266 -4.85156,10.82422 -10.8125,10.82422 z M 260.875,221.35937 c 0,4.08204 -3.30469,7.39063 -7.38672,7.39063 h -65.03906 c -4.08203,0 -7.38281,-3.30859 -7.38281,-7.39063 0,-4.08593 3.30078,-7.39453 7.38281,-7.39453 h 65.03906 c 4.08203,0 7.38672,3.3086 7.38672,7.39453 z m 0,65.10547 c 0,4.08594 -3.30469,7.39453 -7.38672,7.39453 h -65.03906 c -4.08203,0 -7.38281,-3.30859 -7.38281,-7.39453 v -36.33203 c 0,-4.08594 3.30078,-7.39062 7.38281,-7.39062 h 59.13281 c 4.07813,0 7.38281,3.30468 7.38281,7.39062 0,4.08594 -3.30468,7.39063 -7.38281,7.39063 h -51.75 v 21.55078 h 57.64844 c 4.08984,0 7.39453,3.30469 7.39453,7.39062 z m 489.76562,6.7461 c -1.16796,0.67968 -2.44531,1 -3.69921,1 -2.5586,0 -5.0586,-1.33203 -6.4336,-3.71485 l -29.47656,-51.11328 -1.82031,-3.16015 -31.30469,54.26953 c -2.04688,3.55078 -6.59375,4.76953 -10.13672,2.71875 -3.54687,-2.04688 -4.76562,-6.59375 -2.71875,-10.14453 l 35.58594,-61.69532 2.14453,-3.71875 c 1.32422,-2.29687 3.77734,-3.71484 6.42969,-3.71484 2.65234,0 5.09765,1.41797 6.42578,3.71484 l 8.24609,14.29688 29.47656,51.11719 c 2.04688,3.55078 0.82422,8.08984 -2.71875,10.14453 z M 564.71875,220.67187 c -18.30859,-12.39453 -43.27734,-7.57031 -55.66797,10.75782 -12.38281,18.33203 -7.5625,43.32812 10.74609,55.72656 18.3125,12.39844 43.28125,7.57422 55.66407,-10.75781 12.38672,-18.33594 7.57031,-43.33203 -10.74219,-55.72657 z m -1.53906,47.39844 c -7.80469,11.54297 -23.53125,14.58203 -35.0625,6.77735 -11.53125,-7.8086 -14.56641,-23.55079 -6.76953,-35.10157 7.80078,-11.54297 23.52734,-14.58203 35.0664,-6.77343 11.52344,7.80468 14.5586,23.55468 6.76563,35.09765 z m 113.58984,-42.99219 -35.57812,61.6875 -2.14454,3.72657 c -1.32421,2.29297 -3.77734,3.71093 -6.42968,3.71093 -2.65235,0 -5.09766,-1.41796 -6.42578,-3.71093 l -7.80469,-13.52735 -29.91797,-51.88672 c -2.04688,-3.55468 -0.83203,-8.09765 2.71484,-10.14843 3.54297,-2.04688 8.08985,-0.83594 10.13672,2.72265 l 29.92188,51.88672 0.008,-0.004 1.375,2.3789 31.29687,-54.26172 c 2.05469,-3.55468 6.59375,-4.76953 10.13672,-2.72265 3.54297,2.05468 4.76563,6.59375 2.71094,10.14843 z m -283.74219,-3.875 v 65.41016 c 0,3.00781 -1.80859,5.71484 -4.57812,6.85938 -0.91797,0.3789 -1.88281,0.5664 -2.83985,0.5664 -1.93359,0 -3.82812,-0.7539 -5.25,-2.17578 L 360.6875,272.16797 357.26953,268.75 327.6875,239.13672 v 47.47656 c 0,4.10547 -3.32422,7.42578 -7.41797,7.42578 -4.09375,0 -7.41797,-3.32812 -7.41797,-7.42578 v -65.41016 c 0,-3.00781 1.8086,-5.71484 4.58203,-6.85937 2.78516,-1.14844 5.96875,-0.51172 8.08594,1.60937 l 42.25,42.29688 10.42969,10.4375 v -47.48438 c 0,-4.10546 3.32422,-7.42187 7.41797,-7.42187 4.08593,0 7.41015,3.32422 7.41015,7.42187 z m 95.5586,0 v 65.41016 c 0,3.00781 -1.80469,5.71484 -4.57813,6.85938 -0.91797,0.3789 -1.88281,0.5664 -2.83984,0.5664 -1.9336,0 -3.82813,-0.7539 -5.25,-2.17578 L 456.24609,272.16797 452.83203,268.75 423.24609,239.13672 v 47.47656 c 0,4.10547 -3.32031,7.42578 -7.41406,7.42578 -4.10156,0 -7.41797,-3.32812 -7.41797,-7.42578 v -65.41016 c 0,-3.00781 1.8086,-5.71484 4.57813,-6.85937 2.78515,-1.14844 5.96875,-0.51172 8.08984,1.60937 l 42.25,42.29688 10.42578,10.4375 v -47.48438 c 0,-4.10546 3.32422,-7.42187 7.41797,-7.42187 4.08984,0 7.41016,3.32422 7.41016,7.42187 z m -194.79297,0 v 65.41016 c 0,4.10547 -3.32422,7.42578 -7.41797,7.42578 -4.09375,0 -7.41797,-3.32812 -7.41797,-7.42578 v -65.41016 c 0,-4.10546 3.32422,-7.42187 7.41797,-7.42187 4.09375,0 7.41797,3.32422 7.41797,7.42187 z m 0,0"
         clip-rule="nonzero"
         id="path2-9" /></clipPath><linearGradient
       x1="1136.12"
       gradientTransform="matrix(0.664626,0,0,0.665323,0.313197,178.76348)"
       y1="113.072"
       x2="129.59"
       gradientUnits="userSpaceOnUse"
       y2="113.072"
       id="5e1cc8ef6c"><stop
         stop-opacity="1"
         stop-color="rgb(0%, 62.60376%, 100%)"
         offset="0"
         id="stop2" /><stop
         stop-opacity="1"
         stop-color="rgb(0%, 62.440491%, 100%)"
         offset="0.0078125"
         id="stop3" /><stop
         stop-opacity="1"
         stop-color="rgb(0%, 62.117004%, 100%)"
         offset="0.015625"
         id="stop4" /><stop
         stop-opacity="1"
         stop-color="rgb(0%, 61.793518%, 100%)"
         offset="0.0234375"
         id="stop5" /><stop
         stop-opacity="1"
         stop-color="rgb(0%, 61.470032%, 100%)"
         offset="0.03125"
         id="stop6" /><stop
         stop-opacity="1"
         stop-color="rgb(0%, 61.14502%, 100%)"
         offset="0.0390625"
         id="stop7" /><stop
         stop-opacity="1"
         stop-color="rgb(0%, 60.821533%, 100%)"
         offset="0.046875"
         id="stop8" /><stop
         stop-opacity="1"
         stop-color="rgb(0%, 60.498047%, 100%)"
         offset="0.0546875"
         id="stop9" /><stop
         stop-opacity="1"
         stop-color="rgb(0%, 60.173035%, 100%)"
         offset="0.0625"
         id="stop10" /><stop
         stop-opacity="1"
         stop-color="rgb(0%, 59.849548%, 100%)"
         offset="0.0703125"
         id="stop11" /><stop
         stop-opacity="1"
         stop-color="rgb(0%, 59.526062%, 100%)"
         offset="0.078125"
         id="stop12" /><stop
         stop-opacity="1"
         stop-color="rgb(0%, 59.202576%, 100%)"
         offset="0.0859375"
         id="stop13" /><stop
         stop-opacity="1"
         stop-color="rgb(0%, 58.877563%, 100%)"
         offset="0.09375"
         id="stop14" /><stop
         stop-opacity="1"
         stop-color="rgb(0%, 58.554077%, 100%)"
         offset="0.101562"
         id="stop15" /><stop
         stop-opacity="1"
         stop-color="rgb(0%, 58.230591%, 100%)"
         offset="0.109375"
         id="stop16" /><stop
         stop-opacity="1"
         stop-color="rgb(0%, 57.905579%, 100%)"
         offset="0.117187"
         id="stop17" /><stop
         stop-opacity="1"
         stop-color="rgb(0%, 57.582092%, 100%)"
         offset="0.125"
         id="stop18" /><stop
         stop-opacity="1"
         stop-color="rgb(0%, 57.258606%, 100%)"
         offset="0.132812"
         id="stop19" /><stop
         stop-opacity="1"
         stop-color="rgb(0%, 56.933594%, 100%)"
         offset="0.140625"
         id="stop20" /><stop
         stop-opacity="1"
         stop-color="rgb(0%, 56.610107%, 100%)"
         offset="0.148437"
         id="stop21" /><stop
         stop-opacity="1"
         stop-color="rgb(0%, 56.286621%, 100%)"
         offset="0.15625"
         id="stop22" /><stop
         stop-opacity="1"
         stop-color="rgb(0%, 55.963135%, 100%)"
         offset="0.164062"
         id="stop23" /><stop
         stop-opacity="1"
         stop-color="rgb(0%, 55.638123%, 100%)"
         offset="0.171875"
         id="stop24" /><stop
         stop-opacity="1"
         stop-color="rgb(0%, 55.314636%, 100%)"
         offset="0.179687"
         id="stop25" /><stop
         stop-opacity="1"
         stop-color="rgb(0%, 54.99115%, 100%)"
         offset="0.1875"
         id="stop26" /><stop
         stop-opacity="1"
         stop-color="rgb(0%, 54.666138%, 100%)"
         offset="0.195312"
         id="stop27" /><stop
         stop-opacity="1"
         stop-color="rgb(0%, 54.342651%, 100%)"
         offset="0.203125"
         id="stop28" /><stop
         stop-opacity="1"
         stop-color="rgb(0%, 54.019165%, 100%)"
         offset="0.210937"
         id="stop29" /><stop
         stop-opacity="1"
         stop-color="rgb(0%, 53.695679%, 100%)"
         offset="0.21875"
         id="stop30" /><stop
         stop-opacity="1"
         stop-color="rgb(0%, 53.370667%, 100%)"
         offset="0.226562"
         id="stop31" /><stop
         stop-opacity="1"
         stop-color="rgb(0%, 53.04718%, 100%)"
         offset="0.234375"
         id="stop32" /><stop
         stop-opacity="1"
         stop-color="rgb(0%, 52.723694%, 100%)"
         offset="0.242187"
         id="stop33" /><stop
         stop-opacity="1"
         stop-color="rgb(0%, 52.398682%, 100%)"
         offset="0.25"
         id="stop34" /><stop
         stop-opacity="1"
         stop-color="rgb(0%, 52.075195%, 100%)"
         offset="0.257813"
         id="stop35" /><stop
         stop-opacity="1"
         stop-color="rgb(0%, 51.751709%, 100%)"
         offset="0.265625"
         id="stop36" /><stop
         stop-opacity="1"
         stop-color="rgb(0%, 51.428223%, 100%)"
         offset="0.273438"
         id="stop37" /><stop
         stop-opacity="1"
         stop-color="rgb(0%, 51.10321%, 100%)"
         offset="0.28125"
         id="stop38" /><stop
         stop-opacity="1"
         stop-color="rgb(0%, 50.779724%, 100%)"
         offset="0.289062"
         id="stop39" /><stop
         stop-opacity="1"
         stop-color="rgb(0%, 50.456238%, 100%)"
         offset="0.296875"
         id="stop40" /><stop
         stop-opacity="1"
         stop-color="rgb(0%, 50.131226%, 100%)"
         offset="0.304688"
         id="stop41" /><stop
         stop-opacity="1"
         stop-color="rgb(0%, 49.807739%, 100%)"
         offset="0.3125"
         id="stop42" /><stop
         stop-opacity="1"
         stop-color="rgb(0%, 49.484253%, 100%)"
         offset="0.320312"
         id="stop43" /><stop
         stop-opacity="1"
         stop-color="rgb(0%, 49.159241%, 100%)"
         offset="0.328125"
         id="stop44" /><stop
         stop-opacity="1"
         stop-color="rgb(0%, 48.835754%, 100%)"
         offset="0.335938"
         id="stop45" /><stop
         stop-opacity="1"
         stop-color="rgb(0%, 48.512268%, 100%)"
         offset="0.34375"
         id="stop46" /><stop
         stop-opacity="1"
         stop-color="rgb(0%, 48.188782%, 100%)"
         offset="0.351562"
         id="stop47" /><stop
         stop-opacity="1"
         stop-color="rgb(0%, 47.86377%, 100%)"
         offset="0.359375"
         id="stop48" /><stop
         stop-opacity="1"
         stop-color="rgb(0%, 47.540283%, 100%)"
         offset="0.367188"
         id="stop49" /><stop
         stop-opacity="1"
         stop-color="rgb(0%, 47.216797%, 100%)"
         offset="0.375"
         id="stop50" /><stop
         stop-opacity="1"
         stop-color="rgb(0%, 46.891785%, 100%)"
         offset="0.382812"
         id="stop51" /><stop
         stop-opacity="1"
         stop-color="rgb(0%, 46.568298%, 100%)"
         offset="0.390625"
         id="stop52" /><stop
         stop-opacity="1"
         stop-color="rgb(0%, 46.244812%, 100%)"
         offset="0.398437"
         id="stop53" /><stop
         stop-opacity="1"
         stop-color="rgb(0%, 45.921326%, 100%)"
         offset="0.40625"
         id="stop54" /><stop
         stop-opacity="1"
         stop-color="rgb(0%, 45.596313%, 100%)"
         offset="0.414062"
         id="stop55" /><stop
         stop-opacity="1"
         stop-color="rgb(0%, 45.272827%, 100%)"
         offset="0.421875"
         id="stop56" /><stop
         stop-opacity="1"
         stop-color="rgb(0%, 44.949341%, 100%)"
         offset="0.429687"
         id="stop57" /><stop
         stop-opacity="1"
         stop-color="rgb(0%, 44.624329%, 100%)"
         offset="0.4375"
         id="stop58" /><stop
         stop-opacity="1"
         stop-color="rgb(0%, 44.300842%, 100%)"
         offset="0.445312"
         id="stop59" /><stop
         stop-opacity="1"
         stop-color="rgb(0%, 43.977356%, 100%)"
         offset="0.453125"
         id="stop60" /><stop
         stop-opacity="1"
         stop-color="rgb(0%, 43.652344%, 100%)"
         offset="0.460937"
         id="stop61" /><stop
         stop-opacity="1"
         stop-color="rgb(0%, 43.328857%, 100%)"
         offset="0.46875"
         id="stop62" /><stop
         stop-opacity="1"
         stop-color="rgb(0%, 43.005371%, 100%)"
         offset="0.476562"
         id="stop63" /><stop
         stop-opacity="1"
         stop-color="rgb(0%, 42.681885%, 100%)"
         offset="0.484375"
         id="stop64" /><stop
         stop-opacity="1"
         stop-color="rgb(0%, 42.356873%, 100%)"
         offset="0.492187"
         id="stop65" /><stop
         stop-opacity="1"
         stop-color="rgb(0%, 42.033386%, 100%)"
         offset="0.5"
         id="stop66" /><stop
         stop-opacity="1"
         stop-color="rgb(0%, 41.7099%, 100%)"
         offset="0.507812"
         id="stop67" /><stop
         stop-opacity="1"
         stop-color="rgb(0%, 41.384888%, 100%)"
         offset="0.515625"
         id="stop68" /><stop
         stop-opacity="1"
         stop-color="rgb(0%, 41.061401%, 100%)"
         offset="0.523437"
         id="stop69" /><stop
         stop-opacity="1"
         stop-color="rgb(0%, 40.737915%, 100%)"
         offset="0.53125"
         id="stop70" /><stop
         stop-opacity="1"
         stop-color="rgb(0%, 40.414429%, 100%)"
         offset="0.539062"
         id="stop71" /><stop
         stop-opacity="1"
         stop-color="rgb(0%, 40.089417%, 100%)"
         offset="0.546875"
         id="stop72" /><stop
         stop-opacity="1"
         stop-color="rgb(0%, 39.76593%, 100%)"
         offset="0.554687"
         id="stop73" /><stop
         stop-opacity="1"
         stop-color="rgb(0%, 39.442444%, 100%)"
         offset="0.5625"
         id="stop74" /><stop
         stop-opacity="1"
         stop-color="rgb(0%, 39.117432%, 100%)"
         offset="0.570312"
         id="stop75" /><stop
         stop-opacity="1"
         stop-color="rgb(0%, 38.793945%, 100%)"
         offset="0.578125"
         id="stop76" /><stop
         stop-opacity="1"
         stop-color="rgb(0%, 38.470459%, 100%)"
         offset="0.585937"
         id="stop77" /><stop
         stop-opacity="1"
         stop-color="rgb(0%, 38.146973%, 100%)"
         offset="0.59375"
         id="stop78" /><stop
         stop-opacity="1"
         stop-color="rgb(0%, 37.82196%, 100%)"
         offset="0.601562"
         id="stop79" /><stop
         stop-opacity="1"
         stop-color="rgb(0%, 37.498474%, 100%)"
         offset="0.609375"
         id="stop80" /><stop
         stop-opacity="1"
         stop-color="rgb(0%, 37.174988%, 100%)"
         offset="0.617187"
         id="stop81" /><stop
         stop-opacity="1"
         stop-color="rgb(0%, 36.849976%, 100%)"
         offset="0.625"
         id="stop82" /><stop
         stop-opacity="1"
         stop-color="rgb(0%, 36.526489%, 100%)"
         offset="0.632812"
         id="stop83" /><stop
         stop-opacity="1"
         stop-color="rgb(0%, 36.203003%, 100%)"
         offset="0.640625"
         id="stop84" /><stop
         stop-opacity="1"
         stop-color="rgb(0%, 35.877991%, 100%)"
         offset="0.648437"
         id="stop85" /><stop
         stop-opacity="1"
         stop-color="rgb(0%, 35.554504%, 100%)"
         offset="0.65625"
         id="stop86" /><stop
         stop-opacity="1"
         stop-color="rgb(0%, 34.963989%, 100%)"
         offset="0.660156"
         id="stop87" /><stop
         stop-opacity="1"
         stop-color="rgb(0%, 34.536743%, 100%)"
         offset="0.664062"
         id="stop88" /><stop
         stop-opacity="1"
         stop-color="rgb(0%, 33.999634%, 100%)"
         offset="0.667969"
         id="stop89" /><stop
         stop-opacity="1"
         stop-color="rgb(0%, 33.46405%, 100%)"
         offset="0.671875"
         id="stop90" /><stop
         stop-opacity="1"
         stop-color="rgb(0%, 32.926941%, 100%)"
         offset="0.675781"
         id="stop91" /><stop
         stop-opacity="1"
         stop-color="rgb(0%, 32.389832%, 100%)"
         offset="0.679687"
         id="stop92" /><stop
         stop-opacity="1"
         stop-color="rgb(0%, 31.852722%, 100%)"
         offset="0.683594"
         id="stop93" /><stop
         stop-opacity="1"
         stop-color="rgb(0%, 31.317139%, 100%)"
         offset="0.6875"
         id="stop94" /><stop
         stop-opacity="1"
         stop-color="rgb(0%, 30.780029%, 100%)"
         offset="0.691406"
         id="stop95" /><stop
         stop-opacity="1"
         stop-color="rgb(0%, 30.24292%, 100%)"
         offset="0.695312"
         id="stop96" /><stop
         stop-opacity="1"
         stop-color="rgb(0%, 29.705811%, 100%)"
         offset="0.699219"
         id="stop97" /><stop
         stop-opacity="1"
         stop-color="rgb(0%, 29.170227%, 100%)"
         offset="0.703125"
         id="stop98" /><stop
         stop-opacity="1"
         stop-color="rgb(0%, 28.633118%, 100%)"
         offset="0.707031"
         id="stop99" /><stop
         stop-opacity="1"
         stop-color="rgb(0%, 28.096008%, 100%)"
         offset="0.710937"
         id="stop100" /><stop
         stop-opacity="1"
         stop-color="rgb(0%, 27.558899%, 100%)"
         offset="0.714844"
         id="stop101" /><stop
         stop-opacity="1"
         stop-color="rgb(0%, 27.023315%, 100%)"
         offset="0.71875"
         id="stop102" /><stop
         stop-opacity="1"
         stop-color="rgb(0%, 26.486206%, 100%)"
         offset="0.722656"
         id="stop103" /><stop
         stop-opacity="1"
         stop-color="rgb(0%, 25.950623%, 100%)"
         offset="0.726562"
         id="stop104" /><stop
         stop-opacity="1"
         stop-color="rgb(0%, 25.413513%, 100%)"
         offset="0.730469"
         id="stop105" /><stop
         stop-opacity="1"
         stop-color="rgb(0%, 24.876404%, 100%)"
         offset="0.734375"
         id="stop106" /><stop
         stop-opacity="1"
         stop-color="rgb(0%, 24.339294%, 100%)"
         offset="0.738281"
         id="stop107" /><stop
         stop-opacity="1"
         stop-color="rgb(0%, 23.803711%, 100%)"
         offset="0.742188"
         id="stop108" /><stop
         stop-opacity="1"
         stop-color="rgb(0%, 23.266602%, 100%)"
         offset="0.746094"
         id="stop109" /><stop
         stop-opacity="1"
         stop-color="rgb(0%, 22.729492%, 100%)"
         offset="0.75"
         id="stop110" /><stop
         stop-opacity="1"
         stop-color="rgb(0%, 22.192383%, 100%)"
         offset="0.753906"
         id="stop111" /><stop
         stop-opacity="1"
         stop-color="rgb(0%, 21.656799%, 100%)"
         offset="0.757812"
         id="stop112" /><stop
         stop-opacity="1"
         stop-color="rgb(0%, 21.11969%, 100%)"
         offset="0.761719"
         id="stop113" /><stop
         stop-opacity="1"
         stop-color="rgb(0%, 20.584106%, 100%)"
         offset="0.765625"
         id="stop114" /><stop
         stop-opacity="1"
         stop-color="rgb(0%, 20.149231%, 100%)"
         offset="0.769531"
         id="stop115" /><stop
         stop-opacity="1"
         stop-color="rgb(0%, 19.715881%, 100%)"
         offset="0.773438"
         id="stop116" /><stop
         stop-opacity="1"
         stop-color="rgb(0%, 19.303894%, 100%)"
         offset="0.777344"
         id="stop117" /><stop
         stop-opacity="1"
         stop-color="rgb(0%, 18.891907%, 100%)"
         offset="0.78125"
         id="stop118" /><stop
         stop-opacity="1"
         stop-color="rgb(0%, 18.479919%, 100%)"
         offset="0.785156"
         id="stop119" /><stop
         stop-opacity="1"
         stop-color="rgb(0%, 18.067932%, 100%)"
         offset="0.789063"
         id="stop120" /><stop
         stop-opacity="1"
         stop-color="rgb(0%, 17.654419%, 100%)"
         offset="0.792969"
         id="stop121" /><stop
         stop-opacity="1"
         stop-color="rgb(0%, 17.242432%, 100%)"
         offset="0.796875"
         id="stop122" /><stop
         stop-opacity="1"
         stop-color="rgb(0%, 16.830444%, 100%)"
         offset="0.800781"
         id="stop123" /><stop
         stop-opacity="1"
         stop-color="rgb(0%, 16.418457%, 100%)"
         offset="0.804688"
         id="stop124" /><stop
         stop-opacity="1"
         stop-color="rgb(0%, 16.00647%, 100%)"
         offset="0.808594"
         id="stop125" /><stop
         stop-opacity="1"
         stop-color="rgb(0%, 15.594482%, 100%)"
         offset="0.8125"
         id="stop126" /><stop
         stop-opacity="1"
         stop-color="rgb(0%, 15.180969%, 100%)"
         offset="0.816406"
         id="stop127" /><stop
         stop-opacity="1"
         stop-color="rgb(0%, 14.768982%, 100%)"
         offset="0.820313"
         id="stop128" /><stop
         stop-opacity="1"
         stop-color="rgb(0%, 14.356995%, 100%)"
         offset="0.824219"
         id="stop129" /><stop
         stop-opacity="1"
         stop-color="rgb(0%, 13.945007%, 100%)"
         offset="0.828125"
         id="stop130" /><stop
         stop-opacity="1"
         stop-color="rgb(0%, 13.531494%, 100%)"
         offset="0.832031"
         id="stop131" /><stop
         stop-opacity="1"
         stop-color="rgb(0%, 13.119507%, 100%)"
         offset="0.835938"
         id="stop132" /><stop
         stop-opacity="1"
         stop-color="rgb(0%, 12.70752%, 100%)"
         offset="0.839844"
         id="stop133" /><stop
         stop-opacity="1"
         stop-color="rgb(0%, 12.295532%, 100%)"
         offset="0.84375"
         id="stop134" /><stop
         stop-opacity="1"
         stop-color="rgb(0%, 11.883545%, 100%)"
         offset="0.847656"
         id="stop135" /><stop
         stop-opacity="1"
         stop-color="rgb(0%, 11.471558%, 100%)"
         offset="0.851563"
         id="stop136" /><stop
         stop-opacity="1"
         stop-color="rgb(0%, 11.058044%, 100%)"
         offset="0.855469"
         id="stop137" /><stop
         stop-opacity="1"
         stop-color="rgb(0%, 10.646057%, 100%)"
         offset="0.859375"
         id="stop138" /><stop
         stop-opacity="1"
         stop-color="rgb(0%, 10.23407%, 100%)"
         offset="0.863281"
         id="stop139" /><stop
         stop-opacity="1"
         stop-color="rgb(0%, 9.822083%, 100%)"
         offset="0.867188"
         id="stop140" /><stop
         stop-opacity="1"
         stop-color="rgb(0%, 9.461975%, 100%)"
         offset="0.871094"
         id="stop141" /><stop
         stop-opacity="1"
         stop-color="rgb(0%, 9.103394%, 100%)"
         offset="0.875"
         id="stop142" /><stop
         stop-opacity="1"
         stop-color="rgb(0%, 8.799744%, 100%)"
         offset="0.878906"
         id="stop143" /><stop
         stop-opacity="1"
         stop-color="rgb(0%, 8.49762%, 100%)"
         offset="0.882812"
         id="stop144" /><stop
         stop-opacity="1"
         stop-color="rgb(0%, 8.19397%, 100%)"
         offset="0.886719"
         id="stop145" /><stop
         stop-opacity="1"
         stop-color="rgb(0%, 7.89032%, 100%)"
         offset="0.890625"
         id="stop146" /><stop
         stop-opacity="1"
         stop-color="rgb(0%, 7.58667%, 100%)"
         offset="0.894531"
         id="stop147" /><stop
         stop-opacity="1"
         stop-color="rgb(0%, 7.28302%, 100%)"
         offset="0.898438"
         id="stop148" /><stop
         stop-opacity="1"
         stop-color="rgb(0%, 6.97937%, 100%)"
         offset="0.902344"
         id="stop149" /><stop
         stop-opacity="1"
         stop-color="rgb(0%, 6.677246%, 100%)"
         offset="0.90625"
         id="stop150" /><stop
         stop-opacity="1"
         stop-color="rgb(0%, 6.373596%, 100%)"
         offset="0.910156"
         id="stop151" /><stop
         stop-opacity="1"
         stop-color="rgb(0%, 6.069946%, 100%)"
         offset="0.914062"
         id="stop152" /><stop
         stop-opacity="1"
         stop-color="rgb(0%, 5.766296%, 100%)"
         offset="0.917969"
         id="stop153" /><stop
         stop-opacity="1"
         stop-color="rgb(0%, 5.464172%, 100%)"
         offset="0.921875"
         id="stop154" /><stop
         stop-opacity="1"
         stop-color="rgb(0%, 5.160522%, 100%)"
         offset="0.925781"
         id="stop155" /><stop
         stop-opacity="1"
         stop-color="rgb(0%, 4.856873%, 100%)"
         offset="0.929688"
         id="stop156" /><stop
         stop-opacity="1"
         stop-color="rgb(0%, 4.553223%, 100%)"
         offset="0.933594"
         id="stop157" /><stop
         stop-opacity="1"
         stop-color="rgb(0%, 4.251099%, 100%)"
         offset="0.9375"
         id="stop158" /><stop
         stop-opacity="1"
         stop-color="rgb(0%, 3.947449%, 100%)"
         offset="0.941406"
         id="stop159" /><stop
         stop-opacity="1"
         stop-color="rgb(0%, 3.643799%, 100%)"
         offset="0.945312"
         id="stop160" /><stop
         stop-opacity="1"
         stop-color="rgb(0%, 3.340149%, 100%)"
         offset="0.949219"
         id="stop161" /><stop
         stop-opacity="1"
         stop-color="rgb(0%, 3.036499%, 100%)"
         offset="0.953125"
         id="stop162" /><stop
         stop-opacity="1"
         stop-color="rgb(0%, 2.732849%, 100%)"
         offset="0.957031"
         id="stop163" /><stop
         stop-opacity="1"
         stop-color="rgb(0%, 2.430725%, 100%)"
         offset="0.960938"
         id="stop164" /><stop
         stop-opacity="1"
         stop-color="rgb(0%, 2.279663%, 100%)"
         offset="0.96875"
         id="stop165" /><stop
         stop-opacity="1"
         stop-color="rgb(0%, 1.98822%, 100%)"
         offset="0.976562"
         id="stop166" /><stop
         stop-opacity="1"
         stop-color="rgb(0%, 1.705933%, 100%)"
         offset="0.984375"
         id="stop167" /><stop
         stop-opacity="1"
         stop-color="rgb(0%, 1.422119%, 100%)"
         offset="0.992188"
         id="stop168" /><stop
         stop-opacity="1"
         stop-color="rgb(0%, 1.138306%, 100%)"
         offset="1"
         id="stop169" /></linearGradient></defs><g
     inkscape:label="Livello 1"
     inkscape:groupmode="layer"
     id="layer1"><g
       id="g4"
       transform="matrix(1.9597631,0,0,1.8527704,-138.35973,-338.77501)"><g
         clip-path="url(#d846dd2776)"
         id="g170"><g
           clip-path="url(#d51ad244f3)"
           id="g169"><path
             fill="url(#5e1cc8ef6c)"
             d="m 86.441406,208.27734 v 91.27735 H 755.40625 v -91.27735 z m 0,0"
             fill-rule="nonzero"
             id="path169"
             style="fill:url(#5e1cc8ef6c)" /></g></g><g
         fill="#0021ff"
         fill-opacity="1"
         id="g173"><g
           transform="translate(367.42225,341.8935)"
           id="g172"><g
             id="g171"><path
               d="M 14.765625,0.578125 C 12.335938,0.578125 10.195312,0.0507812 8.34375,-1 6.488281,-2.0625 5.023438,-3.535156 3.953125,-5.421875 2.878906,-7.304688 2.34375,-9.460938 2.34375,-11.890625 c 0,-2.425781 0.535156,-4.582031 1.609375,-6.46875 1.070313,-1.882813 2.535156,-3.351563 4.390625,-4.40625 1.851562,-1.0625 3.992188,-1.59375 6.421875,-1.59375 3.03125,0 5.582031,0.792969 7.65625,2.375 2.082031,1.585937 3.410156,3.765625 3.984375,6.546875 H 19.9375 C 19.625,-16.582031 18.992188,-17.484375 18.046875,-18.140625 17.109375,-18.796875 16,-19.125 14.71875,-19.125 c -1.699219,0 -3.140625,0.640625 -4.328125,1.921875 -1.179687,1.273437 -1.765625,3.042969 -1.765625,5.3125 0,2.273437 0.585938,4.046875 1.765625,5.328125 1.1875,1.273438 2.628906,1.90625 4.328125,1.90625 1.28125,0 2.390625,-0.316406 3.328125,-0.953125 C 18.992188,-6.242188 19.625,-7.15625 19.9375,-8.34375 h 6.46875 c -0.574219,2.6875 -1.902344,4.851562 -3.984375,6.484375 -2.074219,1.625 -4.625,2.4375 -7.65625,2.4375 z m 0,0"
               id="path170" /></g></g></g><g
         fill="#0021ff"
         fill-opacity="1"
         id="g176"><g
           transform="translate(400.88272,341.8935)"
           id="g175"><g
             id="g174"><path
               d="m 6.09375,10.546875 5.5,-12.125 h -1.4375 l -9.25,-22.203125 h 6.671875 l 6.65625,16.734375 6.953125,-16.734375 h 6.515625 l -15.09375,34.328125 z m 0,0"
               id="path173" /></g></g></g><g
         fill="#0021ff"
         fill-opacity="1"
         id="g179"><g
           transform="translate(434.19936,341.8935)"
           id="g178"><g
             id="g177"><path
               d="m 17.203125,0.578125 c -1.78125,0 -3.34375,-0.335937 -4.6875,-1 -1.34375,-0.675781 -2.433594,-1.625 -3.265625,-2.84375 L 8.578125,0 H 3.109375 V -34.515625 H 9.25 V -20.375 c 0.769531,-1.050781 1.785156,-1.976562 3.046875,-2.78125 1.257813,-0.800781 2.894531,-1.203125 4.90625,-1.203125 2.238281,0 4.238281,0.546875 6,1.640625 1.757813,1.085938 3.148437,2.570312 4.171875,4.453125 1.019531,1.886719 1.53125,4.027344 1.53125,6.421875 0,2.398438 -0.511719,4.53125 -1.53125,6.40625 -1.023438,1.867188 -2.414062,3.335938 -4.171875,4.40625 -1.761719,1.0703125 -3.761719,1.609375 -6,1.609375 z m -1.28125,-5.375 c 1.945313,0 3.554687,-0.648437 4.828125,-1.953125 1.28125,-1.3125 1.921875,-3.007812 1.921875,-5.09375 0,-2.070312 -0.640625,-3.78125 -1.921875,-5.125 -1.273438,-1.34375 -2.882812,-2.015625 -4.828125,-2.015625 -1.992187,0 -3.617187,0.667969 -4.875,2 -1.261719,1.324219 -1.890625,3.023437 -1.890625,5.09375 0,2.085937 0.628906,3.789063 1.890625,5.109375 1.257813,1.324219 2.882813,1.984375 4.875,1.984375 z m 0,0"
               id="path176" /></g></g></g><g
         fill="#0021ff"
         fill-opacity="1"
         id="g182"><g
           transform="translate(470.15259,341.8935)"
           id="g181"><g
             id="g180"><path
               d="m 14.671875,0.578125 c -2.398437,0 -4.523437,-0.5117188 -6.375,-1.53125 -1.855469,-1.03125 -3.3125,-2.46875 -4.375,-4.3125 -1.054687,-1.851563 -1.578125,-4 -1.578125,-6.4375 0,-2.457031 0.519531,-4.644531 1.5625,-6.5625 1.039062,-1.914063 2.476562,-3.410156 4.3125,-4.484375 1.84375,-1.070312 4.007812,-1.609375 6.5,-1.609375 2.332031,0 4.390625,0.515625 6.171875,1.546875 1.789063,1.023438 3.191406,2.417969 4.203125,4.1875 1.007812,1.773438 1.515625,3.746094 1.515625,5.921875 0,0.355469 -0.01172,0.726563 -0.03125,1.109375 -0.01172,0.375 -0.03125,0.773438 -0.0625,1.1875 H 8.4375 c 0.125,1.855469 0.769531,3.3125 1.9375,4.375 1.164062,1.054688 2.582031,1.578125 4.25,1.578125 1.238281,0 2.28125,-0.28125 3.125,-0.84375 0.851562,-0.5625 1.488281,-1.289063 1.90625,-2.1875 h 6.234375 c -0.449219,1.511719 -1.195313,2.882813 -2.234375,4.109375 -1.042969,1.230469 -2.324219,2.199219 -3.84375,2.90625 -1.511719,0.695312 -3.226562,1.046875 -5.140625,1.046875 z m 0.04687,-19.9375 c -1.5,0 -2.828125,0.421875 -3.984375,1.265625 -1.148437,0.84375 -1.882813,2.132812 -2.203125,3.859375 H 20.375 c -0.09375,-1.570313 -0.671875,-2.816406 -1.734375,-3.734375 -1.054687,-0.925781 -2.359375,-1.390625 -3.921875,-1.390625 z m 0,0"
               id="path179" /></g></g></g><g
         fill="#0021ff"
         fill-opacity="1"
         id="g185"><g
           transform="translate(503.51719,341.8935)"
           id="g184"><g
             id="g183"><path
               d="m 3.109375,0 v -23.78125 h 5.46875 l 0.578125,4.46875 c 0.863281,-1.539062 2.035156,-2.765625 3.515625,-3.671875 1.488281,-0.914063 3.238281,-1.375 5.25,-1.375 V -17.875 h -1.71875 c -1.34375,0 -2.542969,0.210938 -3.59375,0.625 -1.054687,0.40625 -1.875,1.125 -2.46875,2.15625 C 9.546875,-14.070312 9.25,-12.648438 9.25,-10.828125 V 0 Z m 0,0"
               id="path182" /></g></g></g><g
         fill="#0021ff"
         fill-opacity="1"
         id="g188"><g
           transform="translate(527.19839,341.8935)"
           id="g187"><g
             id="g186"><path
               d="m 12.9375,0.578125 c -2.105469,0 -3.960938,-0.34375 -5.5625,-1.03125 -1.59375,-0.6875 -2.871094,-1.632813 -3.828125,-2.84375 -0.960937,-1.21875 -1.53125,-2.628906 -1.71875,-4.234375 H 8 c 0.195312,0.929688 0.71875,1.71875 1.5625,2.375 0.84375,0.65625 1.9375,0.984375 3.28125,0.984375 1.34375,0 2.328125,-0.269531 2.953125,-0.8125 0.625,-0.539063 0.9375,-1.164063 0.9375,-1.875 0,-1.019531 -0.449219,-1.710937 -1.34375,-2.078125 -0.898437,-0.363281 -2.140625,-0.722656 -3.734375,-1.078125 -1.03125,-0.226563 -2.074219,-0.5 -3.125,-0.8125 -1.054688,-0.320313 -2.023438,-0.726563 -2.90625,-1.21875 -0.875,-0.5 -1.585938,-1.140625 -2.125,-1.921875 -0.542969,-0.78125 -0.8125,-1.75 -0.8125,-2.90625 0,-2.101562 0.835938,-3.875 2.515625,-5.3125 1.675781,-1.445312 4.03125,-2.171875 7.0625,-2.171875 2.8125,0 5.054687,0.65625 6.734375,1.96875 1.6875,1.3125 2.6875,3.121094 3,5.421875 h -5.796875 c -0.355469,-1.757812 -1.683594,-2.640625 -3.984375,-2.640625 -1.148438,0 -2.03125,0.226563 -2.65625,0.671875 -0.625,0.449219 -0.9375,1.011719 -0.9375,1.6875 0,0.699219 0.460938,1.257812 1.390625,1.671875 0.925781,0.417969 2.15625,0.804687 3.6875,1.15625 1.664063,0.375 3.191406,0.796875 4.578125,1.265625 1.394531,0.460938 2.503906,1.148438 3.328125,2.0625 0.832031,0.90625 1.25,2.210938 1.25,3.90625 0.03906,1.46875 -0.339844,2.796875 -1.140625,3.984375 -0.804688,1.179687 -1.953125,2.105469 -3.453125,2.78125 -1.5,0.664063 -3.277344,1 -5.328125,1 z m 0,0"
               id="path185" /></g></g></g><g
         fill="#0021ff"
         fill-opacity="1"
         id="g191"><g
           transform="translate(557.06354,341.8935)"
           id="g190"><g
             id="g189"><path
               d="m 14.671875,0.578125 c -2.398437,0 -4.523437,-0.5117188 -6.375,-1.53125 -1.855469,-1.03125 -3.3125,-2.46875 -4.375,-4.3125 -1.054687,-1.851563 -1.578125,-4 -1.578125,-6.4375 0,-2.457031 0.519531,-4.644531 1.5625,-6.5625 1.039062,-1.914063 2.476562,-3.410156 4.3125,-4.484375 1.84375,-1.070312 4.007812,-1.609375 6.5,-1.609375 2.332031,0 4.390625,0.515625 6.171875,1.546875 1.789063,1.023438 3.191406,2.417969 4.203125,4.1875 1.007812,1.773438 1.515625,3.746094 1.515625,5.921875 0,0.355469 -0.01172,0.726563 -0.03125,1.109375 -0.01172,0.375 -0.03125,0.773438 -0.0625,1.1875 H 8.4375 c 0.125,1.855469 0.769531,3.3125 1.9375,4.375 1.164062,1.054688 2.582031,1.578125 4.25,1.578125 1.238281,0 2.28125,-0.28125 3.125,-0.84375 0.851562,-0.5625 1.488281,-1.289063 1.90625,-2.1875 h 6.234375 c -0.449219,1.511719 -1.195313,2.882813 -2.234375,4.109375 -1.042969,1.230469 -2.324219,2.199219 -3.84375,2.90625 -1.511719,0.695312 -3.226562,1.046875 -5.140625,1.046875 z m 0.04687,-19.9375 c -1.5,0 -2.828125,0.421875 -3.984375,1.265625 -1.148437,0.84375 -1.882813,2.132812 -2.203125,3.859375 H 20.375 c -0.09375,-1.570313 -0.671875,-2.816406 -1.734375,-3.734375 -1.054687,-0.925781 -2.359375,-1.390625 -3.921875,-1.390625 z m 0,0"
               id="path188" /></g></g></g><g
         fill="#0021ff"
         fill-opacity="1"
         id="g194"><g
           transform="translate(590.42813,341.8935)"
           id="g193"><g
             id="g192"><path
               d="M 14.765625,0.578125 C 12.335938,0.578125 10.195312,0.0507812 8.34375,-1 6.488281,-2.0625 5.023438,-3.535156 3.953125,-5.421875 2.878906,-7.304688 2.34375,-9.460938 2.34375,-11.890625 c 0,-2.425781 0.535156,-4.582031 1.609375,-6.46875 1.070313,-1.882813 2.535156,-3.351563 4.390625,-4.40625 1.851562,-1.0625 3.992188,-1.59375 6.421875,-1.59375 3.03125,0 5.582031,0.792969 7.65625,2.375 2.082031,1.585937 3.410156,3.765625 3.984375,6.546875 H 19.9375 C 19.625,-16.582031 18.992188,-17.484375 18.046875,-18.140625 17.109375,-18.796875 16,-19.125 14.71875,-19.125 c -1.699219,0 -3.140625,0.640625 -4.328125,1.921875 -1.179687,1.273437 -1.765625,3.042969 -1.765625,5.3125 0,2.273437 0.585938,4.046875 1.765625,5.328125 1.1875,1.273438 2.628906,1.90625 4.328125,1.90625 1.28125,0 2.390625,-0.316406 3.328125,-0.953125 C 18.992188,-6.242188 19.625,-7.15625 19.9375,-8.34375 h 6.46875 c -0.574219,2.6875 -1.902344,4.851562 -3.984375,6.484375 -2.074219,1.625 -4.625,2.4375 -7.65625,2.4375 z m 0,0"
               id="path191" /></g></g></g><g
         fill="#0021ff"
         fill-opacity="1"
         id="g197"><g
           transform="translate(623.8886,341.8935)"
           id="g196"><g
             id="g195"><path
               d="m 12.03125,0.578125 c -2.96875,0 -5.261719,-0.925781 -6.875,-2.78125 -1.617188,-1.851563 -2.421875,-4.570313 -2.421875,-8.15625 V -23.78125 h 6.09375 v 12.84375 c 0,2.054688 0.410156,3.621094 1.234375,4.703125 0.832031,1.085937 2.144531,1.625 3.9375,1.625 1.6875,0 3.082031,-0.601563 4.1875,-1.8125 1.101562,-1.21875 1.65625,-2.910156 1.65625,-5.078125 v -12.28125 h 6.140625 V 0 H 20.5625 l -0.484375,-4.03125 c -0.730469,1.40625 -1.792969,2.527344 -3.1875,3.359375 -1.386719,0.832031 -3.007813,1.25 -4.859375,1.25 z m 0,0"
               id="path194" /></g></g></g><g
         fill="#0021ff"
         fill-opacity="1"
         id="g200"><g
           transform="translate(657.73257,341.8935)"
           id="g199"><g
             id="g198"><path
               d="m 3.109375,0 v -23.78125 h 5.46875 l 0.578125,4.46875 c 0.863281,-1.539062 2.035156,-2.765625 3.515625,-3.671875 1.488281,-0.914063 3.238281,-1.375 5.25,-1.375 V -17.875 h -1.71875 c -1.34375,0 -2.542969,0.210938 -3.59375,0.625 -1.054687,0.40625 -1.875,1.125 -2.46875,2.15625 C 9.546875,-14.070312 9.25,-12.648438 9.25,-10.828125 V 0 Z m 0,0"
               id="path197" /></g></g></g><g
         fill="#0021ff"
         fill-opacity="1"
         id="g203"><g
           transform="translate(681.41376,341.8935)"
           id="g202"><g
             id="g201"><path
               d="m 6.421875,-27.46875 c -1.117187,0 -2.03125,-0.332031 -2.75,-1 -0.71875,-0.675781 -1.078125,-1.523438 -1.078125,-2.546875 0,-1.019531 0.359375,-1.859375 1.078125,-2.515625 0.71875,-0.65625 1.632813,-0.984375 2.75,-0.984375 1.113281,0 2.03125,0.328125 2.75,0.984375 0.726563,0.65625 1.09375,1.496094 1.09375,2.515625 0,1.023437 -0.367187,1.871094 -1.09375,2.546875 -0.71875,0.667969 -1.636719,1 -2.75,1 z M 3.359375,0 v -23.78125 h 6.125 V 0 Z m 0,0"
               id="path200" /></g></g></g><g
         fill="#0021ff"
         fill-opacity="1"
         id="g206"><g
           transform="translate(698.91099,341.8935)"
           id="g205"><g
             id="g204"><path
               d="M 13.703125,0 C 11.210938,0 9.21875,-0.601562 7.71875,-1.8125 c -1.5,-1.21875 -2.25,-3.378906 -2.25,-6.484375 v -10.34375 H 1.390625 V -23.78125 H 5.46875 l 0.71875,-6.375 h 5.40625 v 6.375 h 6.4375 v 5.140625 h -6.4375 V -8.25 c 0,1.15625 0.25,1.953125 0.75,2.390625 0.5,0.429687 1.351562,0.640625 2.5625,0.640625 H 17.875 V 0 Z m 0,0"
               id="path203" /></g></g></g><g
         fill="#0021ff"
         fill-opacity="1"
         id="g209"><g
           transform="translate(723.79061,341.8935)"
           id="g208"><g
             id="g207"><path
               d="m 6.09375,10.546875 5.5,-12.125 h -1.4375 l -9.25,-22.203125 h 6.671875 l 6.65625,16.734375 6.953125,-16.734375 h 6.515625 l -15.09375,34.328125 z m 0,0"
               id="path206" /></g></g></g></g></g></svg>
