<!DOCTYPE svg PUBLIC "-//W3C//DTD SVG 20010904//EN"
 "http://www.w3.org/TR/2001/REC-SVG-20010904/DTD/svg10.dtd">
<svg version="1.0" xmlns="http://www.w3.org/2000/svg"
 width="300.000000pt" height="142.000000pt" viewBox="0 0 300.000000 142.000000"
 preserveAspectRatio="xMidYMid meet">

<g transform="translate(0.000000,142.000000) scale(0.100000,-0.100000)"
fill="#000000" stroke="none">
<path d="M470 1380 c-20 -20 -24 -35 -21 -76 3 -35 -33 -58 -90 -55 -43 2 -53
-2 -79 -28 -32 -32 -38 -63 -18 -106 16 -35 57 -55 111 -55 54 0 77 -22 77
-72 0 -47 -45 -88 -96 -88 -43 0 -84 -37 -84 -75 0 -16 12 -39 30 -57 25 -24
37 -29 59 -25 22 5 35 0 60 -25 46 -45 43 -92 -7 -141 -21 -20 -45 -37 -55
-37 -9 0 -32 14 -52 31 -29 26 -35 38 -35 71 0 50 -13 74 -51 93 -25 13 -37
14 -65 5 -65 -22 -85 -94 -40 -146 20 -23 32 -28 77 -30 46 -1 57 -6 81 -33
15 -17 28 -40 28 -50 0 -10 9 -26 20 -36 31 -28 71 -10 85 37 16 57 61 98 107
98 51 0 88 35 88 83 0 47 34 77 89 77 97 0 128 114 42 159 -61 33 -138 -26
-125 -95 13 -68 -96 -102 -149 -46 -40 41 -38 101 4 136 18 15 43 26 60 26 40
0 69 32 69 74 0 40 -28 66 -71 66 -48 0 -68 27 -70 98 -3 76 12 96 72 97 73 2
104 71 54 120 -30 31 -77 33 -105 5z"/>
<path d="M636 1215 c-57 -53 -17 -135 67 -135 55 0 87 -30 87 -82 0 -42 36
-78 77 -78 29 0 73 41 73 68 0 35 -38 72 -75 72 -21 0 -45 9 -64 26 -26 21
-31 33 -31 69 0 35 -5 48 -26 64 -35 28 -75 26 -108 -4z"/>
<path d="M130 1040 c-11 -11 -20 -33 -20 -50 0 -59 67 -90 118 -54 28 20 31
83 4 107 -25 23 -78 21 -102 -3z"/>
<path d="M821 701 c-61 -61 23 -150 87 -91 41 38 22 95 -34 106 -25 5 -37 1
-53 -15z"/>
<path d="M640 542 c-35 -36 -38 -69 -9 -106 16 -20 29 -26 60 -26 52 0 79 27
79 78 0 45 -21 69 -68 78 -26 5 -36 1 -62 -24z"/>
<path d="M490 470 c-18 -18 -20 -33 -20 -193 0 -156 2 -176 18 -190 22 -20 53
-22 70 -5 8 8 12 66 12 193 0 164 -2 184 -18 198 -24 22 -38 21 -62 -3z"/>
<path d="M1180 465 c0 -8 7 -15 15 -15 8 0 15 7 15 15 0 8 -7 15 -15 15 -8 0
-15 -7 -15 -15z"/>
<path d="M1360 447 c0 -18 -5 -38 -11 -44 -7 -7 -7 -17 -1 -29 6 -11 13 -27
16 -36 3 -10 15 -18 26 -18 21 0 27 14 10 25 -14 9 -12 48 3 64 10 11 10 14 0
18 -7 3 -13 16 -13 29 0 15 -6 24 -15 24 -10 0 -15 -10 -15 -33z"/>
<path d="M1840 400 c0 -64 3 -80 15 -80 10 0 15 10 15 28 l1 27 17 -27 c9 -16
22 -28 29 -28 17 0 16 6 -3 35 -15 23 -15 27 0 50 16 24 15 25 -2 25 -11 0
-24 -10 -30 -22 -9 -20 -11 -17 -11 25 -1 35 -5 47 -16 47 -12 0 -15 -16 -15
-80z"/>
<path d="M2210 465 c0 -8 7 -15 15 -15 8 0 15 7 15 15 0 8 -7 15 -15 15 -8 0
-15 -7 -15 -15z"/>
<path d="M1039 465 c0 -3 0 -35 -1 -72 l0 -68 42 -3 c23 -2 48 2 55 8 16 13
18 108 2 128 -9 11 -96 18 -98 7z m81 -41 c0 -8 -10 -14 -24 -14 -26 0 -41 14
-32 29 8 13 56 0 56 -15z m-2 -56 c3 -13 -3 -18 -22 -18 -27 0 -41 14 -31 31
10 16 49 6 53 -13z"/>
<path d="M2000 455 c-17 -20 -3 -53 31 -70 39 -21 37 -35 -7 -35 -45 0 -41
-24 5 -28 66 -7 81 42 26 84 -38 28 -37 49 1 40 17 -5 24 -2 24 9 0 20 -63 20
-80 0z"/>
<path d="M1650 446 c0 -8 -6 -16 -12 -19 -10 -4 -10 -7 0 -18 6 -7 12 -28 12
-46 0 -36 18 -50 48 -38 16 6 16 7 0 19 -19 14 -25 56 -8 56 6 0 10 7 10 15 0
8 -4 15 -10 15 -5 0 -10 7 -10 15 0 8 -7 15 -15 15 -8 0 -15 -6 -15 -14z"/>
<path d="M1182 378 c3 -46 6 -53 26 -56 22 -3 30 12 12 23 -5 3 -10 24 -10 46
0 29 -4 39 -16 39 -12 0 -14 -10 -12 -52z"/>
<path d="M1250 421 c0 -5 10 -11 22 -13 12 -2 23 -9 26 -17 3 -9 -1 -11 -14
-7 -27 8 -46 -8 -42 -35 3 -26 25 -34 64 -25 20 5 24 13 24 44 0 21 -5 43 -12
50 -14 14 -68 16 -68 3z m50 -66 c0 -8 -7 -15 -15 -15 -8 0 -15 7 -15 15 0 8
7 15 15 15 8 0 15 -7 15 -15z"/>
<path d="M1432 379 c3 -52 4 -54 31 -54 15 1 27 -5 27 -12 0 -8 -12 -13 -30
-13 -37 0 -39 -17 -3 -26 45 -12 58 5 61 85 2 59 0 71 -13 71 -11 0 -15 -11
-15 -41 0 -33 -3 -40 -17 -37 -12 2 -17 13 -17 37 -1 19 -7 36 -14 39 -10 3
-12 -9 -10 -49z"/>
<path d="M1545 413 c-4 -12 2 -24 19 -38 33 -26 33 -39 1 -31 -18 5 -25 2 -25
-9 0 -24 67 -20 80 4 8 16 4 24 -23 45 -29 23 -30 26 -10 26 12 0 25 5 28 10
4 6 -8 10 -28 10 -24 0 -37 -6 -42 -17z"/>
<path d="M1726 415 c-11 -29 -7 -72 8 -84 8 -7 27 -11 43 -9 27 3 28 6 28 53
l0 50 -36 3 c-26 2 -38 -1 -43 -13z m59 -40 c0 -43 -29 -40 -33 3 -3 28 0 33
15 30 13 -2 18 -12 18 -33z"/>
<path d="M2114 416 c-3 -8 -4 -31 -2 -52 3 -37 5 -39 36 -39 17 0 32 5 32 10
0 6 -7 10 -16 10 -20 0 -33 22 -27 46 3 12 14 19 29 19 13 0 24 5 24 10 0 16
-70 12 -76 -4z"/>
<path d="M2212 378 c3 -46 6 -53 26 -56 22 -3 30 12 12 23 -5 3 -10 24 -10 46
0 29 -4 39 -16 39 -12 0 -14 -10 -12 -52z"/>
<path d="M2282 418 c-16 -16 -15 -59 1 -82 8 -11 23 -17 40 -14 32 4 36 23 5
23 -32 0 -34 23 -1 27 22 2 28 8 28 28 0 20 -5 26 -30 28 -17 2 -36 -3 -43
-10z m48 -18 c0 -5 -7 -10 -15 -10 -8 0 -15 5 -15 10 0 6 7 10 15 10 8 0 15
-4 15 -10z"/>
<path d="M2387 423 c-4 -3 -7 -28 -7 -55 0 -35 4 -48 14 -48 10 0 16 13 18 42
4 56 28 64 28 9 0 -38 11 -58 28 -48 4 3 5 28 4 56 l-4 51 -37 0 c-21 0 -41
-3 -44 -7z"/>
<path d="M2504 416 c-3 -8 -4 -31 -2 -52 3 -37 5 -39 36 -39 17 0 32 5 32 10
0 6 -8 10 -18 10 -12 0 -17 8 -17 30 0 23 5 31 23 33 35 5 26 22 -13 22 -21 0
-38 -6 -41 -14z"/>
<path d="M2607 424 c-12 -12 -8 -79 5 -92 18 -18 68 -15 68 3 0 9 -8 14 -21
12 -12 -1 -24 4 -26 11 -3 7 5 12 22 12 23 0 26 4 23 28 -2 22 -9 28 -33 30
-17 2 -34 0 -38 -4z m53 -24 c0 -5 -7 -10 -15 -10 -8 0 -15 5 -15 10 0 6 7 10
15 10 8 0 15 -4 15 -10z"/>
<path d="M1327 223 c-4 -3 -7 -16 -7 -28 0 -16 -6 -21 -27 -20 -27 0 -28 -2
-28 -50 l0 -50 40 0 40 0 3 78 c3 70 -3 89 -21 70z m-7 -104 c0 -19 -5 -29
-15 -29 -15 0 -22 50 -9 63 12 12 24 -4 24 -34z"/>
<path d="M1739 226 c-8 -8 3 -156 12 -156 5 0 9 18 9 39 0 24 5 41 14 44 20 8
26 -2 26 -45 0 -27 4 -38 15 -38 11 0 15 11 15 39 0 57 -8 71 -41 71 -24 0
-29 4 -29 25 0 22 -10 32 -21 21z"/>
<path d="M2087 223 c-9 -8 -9 -116 -1 -137 3 -9 15 -16 25 -16 20 0 26 15 9
25 -5 3 -10 35 -10 71 0 59 -6 74 -23 57z"/>
<path d="M2860 150 c0 -64 3 -80 15 -80 10 0 15 10 15 28 l1 27 17 -27 c9 -16
22 -28 29 -28 17 0 16 11 -2 38 -14 19 -14 24 1 47 14 21 14 25 1 25 -8 0 -22
-10 -30 -22 -15 -22 -16 -22 -16 25 -1 35 -5 47 -16 47 -12 0 -15 -16 -15 -80z"/>
<path d="M1410 205 c0 -9 9 -15 25 -15 24 0 25 -3 25 -60 0 -47 3 -60 15 -60
12 0 15 13 15 60 0 53 2 60 20 60 11 0 20 7 20 15 0 12 -13 15 -60 15 -47 0
-60 -3 -60 -15z"/>
<path d="M2550 145 c0 -60 3 -75 15 -75 9 0 15 9 15 25 0 19 5 25 21 25 36 0
59 19 59 48 0 39 -17 52 -67 52 l-43 0 0 -75z m75 25 c0 -8 -10 -16 -22 -18
-18 -3 -23 2 -23 18 0 16 5 21 23 18 12 -2 22 -10 22 -18z"/>
<path d="M1043 168 c2 -7 12 -13 22 -13 30 0 29 -23 -2 -27 -22 -2 -28 -8 -28
-28 0 -22 4 -25 40 -25 39 0 40 1 43 38 2 21 -2 45 -9 53 -15 18 -72 19 -66 2z
m47 -68 c0 -5 -7 -10 -15 -10 -8 0 -15 5 -15 10 0 6 7 10 15 10 8 0 15 -4 15
-10z"/>
<path d="M1152 168 c-18 -18 -16 -98 3 -98 11 0 15 11 15 40 0 54 27 56 32 3
2 -27 8 -39 21 -41 14 -3 17 4 17 40 0 50 -13 68 -50 68 -14 0 -31 -5 -38 -12z"/>
<path d="M1532 168 c-15 -15 -16 -52 -2 -79 12 -22 85 -29 77 -6 -2 6 -13 11
-25 9 -33 -5 -35 16 -2 23 26 6 31 11 28 33 -2 22 -9 28 -33 30 -17 2 -36 -3
-43 -10z m48 -16 c0 -13 -12 -22 -22 -16 -10 6 -1 24 13 24 5 0 9 -4 9 -8z"/>
<path d="M1638 155 c-18 -41 0 -79 40 -83 18 -2 32 1 32 7 0 6 -9 11 -20 11
-11 0 -23 7 -27 16 -7 20 9 49 27 49 7 0 15 6 18 13 2 8 -7 12 -27 12 -24 0
-34 -6 -43 -25z"/>
<path d="M1863 174 c-20 -8 -17 -104 2 -104 11 0 15 11 15 40 0 29 4 40 15 40
11 0 15 -11 15 -40 0 -29 4 -40 16 -40 12 0 14 10 12 53 -3 50 -4 52 -33 54
-16 1 -36 0 -42 -3z"/>
<path d="M1974 166 c-3 -8 -4 -31 -2 -52 3 -38 4 -39 43 -39 39 0 40 1 43 38
2 21 -2 45 -9 53 -15 18 -68 18 -75 0z m56 -47 c0 -18 -5 -29 -14 -29 -20 0
-30 38 -16 55 17 21 30 9 30 -26z"/>
<path d="M2154 167 c-3 -8 -4 -32 -2 -53 3 -38 4 -39 43 -39 l40 0 0 50 0 50
-38 3 c-25 2 -39 -1 -43 -11z m54 -48 c-1 -13 -10 -24 -18 -24 -17 0 -20 33
-6 53 13 18 28 0 24 -29z"/>
<path d="M2266 164 c-19 -49 -2 -94 35 -94 16 0 29 -4 29 -10 0 -5 -13 -10
-30 -10 -21 0 -30 -5 -30 -16 0 -12 9 -14 38 -12 l37 3 3 69 c2 49 -1 72 -10
77 -22 14 -65 10 -72 -7z m59 -39 c0 -20 -6 -31 -17 -33 -15 -3 -18 4 -18 33
0 29 3 36 18 33 11 -2 17 -13 17 -33z"/>
<path d="M2382 128 c3 -52 4 -53 38 -59 34 -5 29 -14 -13 -21 -33 -6 -18 -23
21 -23 l37 0 3 78 c2 61 0 78 -10 75 -7 -3 -15 -21 -18 -42 -7 -51 -24 -50
-28 2 -2 29 -8 42 -18 42 -12 0 -14 -11 -12 -52z"/>
<path d="M2682 168 c3 -7 10 -14 16 -14 7 -1 17 -2 22 -3 24 -3 7 -21 -19 -21
-35 0 -42 -8 -34 -38 4 -17 13 -22 37 -22 44 0 53 13 47 63 -6 39 -8 42 -40
45 -24 3 -32 0 -29 -10z m48 -68 c0 -5 -6 -10 -14 -10 -8 0 -18 5 -21 10 -3 6
3 10 14 10 12 0 21 -4 21 -10z"/>
<path d="M2793 173 c-20 -7 -17 -103 2 -103 11 0 15 11 15 39 0 25 5 41 15 45
8 3 15 10 15 16 0 10 -25 12 -47 3z"/>
</g>
</svg>
